<?xml version="1.0" encoding="utf-8"?>
<!-- Generator: Adobe Illustrator 25.2.3, SVG Export Plug-In . SVG Version: 6.00 Build 0)  -->
<svg version="1.1" id="Layer_1" xmlns="http://www.w3.org/2000/svg" xmlns:xlink="http://www.w3.org/1999/xlink" x="0px" y="0px"
	 viewBox="0 0 565 600" style="enable-background:new 0 0 565 600;" xml:space="preserve">
<style type="text/css">
	.st0{fill:#999999;}
	.st1{fill:none;stroke:#404040;stroke-width:4;stroke-miterlimit:10;}
	.st2{fill:#4ED1A1;stroke:#404040;stroke-width:4;stroke-miterlimit:10;}
	.st3{fill:#FFFFFF;stroke:#404040;stroke-width:4;stroke-miterlimit:10;}
	.st4{fill:#B3E3FF;stroke:#404040;stroke-width:4;stroke-miterlimit:10;}
	.st5{fill:#B3E3FF;stroke:#404040;stroke-width:4;stroke-linejoin:round;}
	.st6{fill:#4ED1A1;stroke:#404040;stroke-width:4;stroke-linecap:round;stroke-linejoin:round;}
	.st7{fill:#404040;}
	.st8{fill:none;stroke:#404040;stroke-width:4;stroke-linecap:round;stroke-linejoin:round;}
	.st9{fill:#B3E3FF;stroke:#404040;stroke-width:4;stroke-linecap:round;stroke-linejoin:round;stroke-miterlimit:10;}
	.st10{fill:#414141;}
</style>
<path class="st0" d="M122.6,11V0.3h3.7c2.7-0.1,5,2,5.1,4.7c0,0.2,0,0.4,0,0.6c0.2,2.7-1.8,5.1-4.5,5.3c-0.2,0-0.4,0-0.6,0L122.6,11
	C122.6,10.9,122.6,11,122.6,11z M126.3,9.7c2,0,3.6-1.3,3.6-4s-1.6-4-3.6-4h-2.2v8H126.3z M140.3,8.9c-0.4,1.4-1.7,2.3-3.2,2.3
	c-2,0-3.6-1.6-3.6-3.6c0-0.1,0-0.2,0-0.3c-0.1-1.9,1.3-3.6,3.3-3.8c0,0,0.1,0,0.1,0c2.2,0,3.5,1.5,3.5,3.8v0.4H135
	c0,1.2,0.9,2.2,2.1,2.2c0,0,0.1,0,0.1,0c1,0.1,1.8-0.5,2-1.5L140.3,8.9L140.3,8.9L140.3,8.9z M138.9,6.6c0-1-0.8-1.8-1.8-1.8
	c-0.1,0-0.2,0-0.2,0c-1,0-1.9,0.8-2,1.8H138.9z M144.8,3.8h1.6v1.3h-1.6v3.8c-0.1,0.5,0.2,0.9,0.7,1c0.1,0,0.2,0,0.3,0
	c0.2,0,0.4,0,0.6-0.1V11c-0.3,0.1-0.7,0.1-1,0.1c-1.1,0-2-0.8-2-1.8c0-0.1,0-0.2,0-0.3V5H142V3.8h0.4c0.5,0.1,1-0.3,1.1-0.9
	c0-0.1,0-0.1,0-0.2V1.5h1.3C144.8,1.5,144.8,3.8,144.8,3.8z M155.2,8.9c-0.4,1.4-1.7,2.3-3.2,2.3c-2,0-3.6-1.6-3.6-3.6
	c0-0.1,0-0.2,0-0.3c-0.1-1.9,1.3-3.6,3.3-3.8c0,0,0.1,0,0.1,0c2.2,0,3.5,1.5,3.5,3.8v0.4h-5.4c0,1.2,0.9,2.2,2.1,2.2
	c0,0,0.1,0,0.1,0c1,0.1,1.8-0.5,2-1.5L155.2,8.9z M153.8,6.6c0-1-0.8-1.8-1.8-1.8c-0.1,0-0.2,0-0.2,0c-1,0-1.9,0.8-2,1.8H153.8z
	 M158.6,7.4c-0.1,1.2,0.7,2.3,2,2.5c0.1,0,0.2,0,0.2,0c0.9,0,1.8-0.6,2-1.5l1.2,0.5c-0.5,1.4-1.8,2.3-3.3,2.2c-2,0-3.6-1.6-3.6-3.6
	c0-0.1,0-0.2,0-0.2c-0.1-2,1.5-3.7,3.5-3.8c0,0,0.1,0,0.1,0c1.5-0.1,2.8,0.9,3.2,2.3l-1.3,0.5c-0.2-0.9-1-1.5-1.9-1.5
	C159.4,4.9,158.5,6.1,158.6,7.4C158.6,7.4,158.6,7.4,158.6,7.4L158.6,7.4L158.6,7.4z M168.4,3.8h1.6v1.3h-1.6v3.8
	c-0.1,0.5,0.2,0.9,0.7,1c0.1,0,0.2,0,0.3,0c0.2,0,0.4,0,0.6-0.1V11c-0.3,0.1-0.7,0.1-1,0.1c-1.1,0-2-0.8-2-1.8c0-0.1,0-0.2,0-0.3V5
	h-1.4V3.8h0.4c0.5,0.1,1-0.3,1.1-0.9c0-0.1,0-0.1,0-0.2V1.5h1.3C168.4,1.5,168.4,3.8,168.4,3.8z M173.3,0c0.5,0,1,0.4,1,0.9
	c0,0,0,0.1,0,0.1c0,0.5-0.4,1-0.9,1c0,0-0.1,0-0.1,0c-0.6,0-1-0.4-1-1S172.7,0,173.3,0L173.3,0z M172.6,11V3.8h1.4V11
	C174,11,172.6,11,172.6,11z M178.5,11h-1.4V3.8h1.4v1c0.5-0.8,1.3-1.2,2.2-1.2c1.7,0,2.6,1.2,2.6,2.9v4.6h-1.4V6.8
	c0.1-0.9-0.4-1.7-1.3-1.8c-0.1,0-0.3,0-0.4,0c-1,0-1.7,0.8-1.7,1.8c0,0.1,0,0.1,0,0.2L178.5,11L178.5,11z M187.1,11
	c0.2,1.2,1.3,1.9,2.5,1.7c1-0.2,1.8-1.1,1.7-2.2v-1c-0.4,0.8-1.3,1.3-2.2,1.2c-1.8,0-3.3-1.5-3.3-3.3c0-0.1,0-0.1,0-0.2
	c-0.1-1.8,1.3-3.4,3.1-3.5c0.1,0,0.1,0,0.2,0c0.9-0.1,1.8,0.3,2.2,1.1v-1h1.4v6.7c0.2,1.8-1.2,3.4-3,3.6c-0.2,0-0.4,0-0.6,0
	c-1.6,0.1-3.1-1.1-3.3-2.7L187.1,11z M191.4,7.1c0.1-1.1-0.7-2.1-1.8-2.3c-0.1,0-0.2,0-0.3,0c-1.2,0-2.1,0.9-2.1,2.1
	c0,0.1,0,0.1,0,0.2c-0.1,1.1,0.7,2.1,1.8,2.3c0.1,0,0.2,0,0.3,0c1.2,0,2.1-0.9,2.1-2.1C191.4,7.2,191.4,7.2,191.4,7.1L191.4,7.1z
	 M202,6.8l1.9-0.3c0.3,0,0.5-0.2,0.6-0.5c0-0.8-0.6-1.3-1.4-1.3c-0.1,0-0.1,0-0.2,0c-0.8-0.1-1.5,0.6-1.6,1.4c0,0,0,0.1,0,0.1
	l-1.4-0.3c0.2-1.4,1.6-2.4,3-2.3c2.2,0,3,1.2,3,2.6v3.6c0,0.6,0.1,1,0.1,1.2h-1.4c0-0.2-0.1-0.5-0.1-1c-0.5,0.8-1.4,1.2-2.3,1.2
	c-1.2,0.1-2.2-0.9-2.3-2.1C199.8,7.9,200.8,6.9,202,6.8C202,6.8,202,6.8,202,6.8z M204.5,7.9V7.6l-2.2,0.3c-0.6,0-1,0.4-1,1
	c0,0,0,0.1,0,0.1c0,0.6,0.5,1,1.1,1c0,0,0.1,0,0.1,0c1,0.1,1.9-0.7,2-1.7C204.5,8.2,204.5,8,204.5,7.9L204.5,7.9z M215.2,5v5.9h-1.5
	V5h-1.3V3.8h1.3V2.5c-0.1-1.3,0.9-2.4,2.2-2.5c0.1,0,0.2,0,0.2,0c0.3-0.1,0.6,0,0.8,0.2v1.3c-0.2-0.1-0.4-0.1-0.6-0.1
	c-0.5-0.1-1,0.3-1.1,0.9c0,0.1,0,0.2,0,0.3v1.1h1.7V5L215.2,5L215.2,5z M225.7,7.4c0,2-1.7,3.7-3.7,3.7c-2,0-3.7-1.7-3.7-3.7
	c0,0,0,0,0,0c0-2,1.7-3.7,3.7-3.7C224,3.7,225.7,5.4,225.7,7.4L225.7,7.4z M224.2,7.4c0.2-1.2-0.6-2.4-1.8-2.6
	c-1.2-0.2-2.4,0.6-2.6,1.8c0,0.2,0,0.5,0,0.7c0,1.7,1,2.6,2.2,2.6c1.3-0.1,2.3-1.2,2.2-2.5C224.2,7.5,224.2,7.4,224.2,7.4L224.2,7.4
	z M232.2,5.2h-0.6c-1.2,0-2,0.6-2,2.2V11h-1.4V3.8h1.4v1.3c0.4-0.9,1.2-1.4,2.2-1.4h0.5v1.5C232.3,5.2,232.2,5.2,232.2,5.2z
	 M237.9,6.8L241,11h-1.8l-2.4-3.2l-1,1V11h-1.3V0.1h1.4v6.8l3.1-3.2h1.9L237.9,6.8L237.9,6.8L237.9,6.8z M248.3,0c0.5,0,1,0.4,1,0.9
	c0,0,0,0.1,0,0.1c0,0.5-0.4,1-0.9,1c0,0-0.1,0-0.1,0c-0.6,0-1-0.4-1-1C247.3,0.5,247.8,0,248.3,0L248.3,0z M247.6,11V3.8h1.4V11
	C249,11,247.6,11,247.6,11z M253.6,11h-1.4V3.8h1.4v1c0.5-0.8,1.3-1.2,2.2-1.2c1.7,0,2.6,1.2,2.6,2.9v4.6H257V6.8
	c0.1-0.9-0.4-1.7-1.3-1.8c-0.1,0-0.3,0-0.4,0c-1,0-1.7,0.8-1.7,1.8c0,0.1,0,0.1,0,0.2C253.6,7,253.6,11,253.6,11z M267.7,3.8h1.6
	v1.3h-1.6v3.8c-0.1,0.5,0.2,0.9,0.7,1c0.1,0,0.2,0,0.3,0c0.2,0,0.4,0,0.6-0.1V11c-0.3,0.1-0.7,0.1-1,0.1c-1.1,0-2-0.8-2-1.8
	c0-0.1,0-0.2,0-0.3V5h-1.4V3.8h0.4c0.5,0.1,1-0.3,1.1-0.9c0-0.1,0-0.1,0-0.2V1.5h1.3C267.7,1.5,267.7,3.8,267.7,3.8z M273.3,11h-1.4
	V0.1h1.4v4.5c0.5-0.7,1.3-1.1,2.2-1.1c1.7,0,2.6,1.2,2.6,2.9V11h-1.4V6.7c0.1-0.9-0.4-1.7-1.3-1.8c-0.1,0-0.3,0-0.4,0
	c-1.1,0-1.6,0.8-1.7,1.9L273.3,11L273.3,11z M287.4,8.9c-0.4,1.4-1.7,2.3-3.2,2.3c-2,0-3.6-1.6-3.6-3.6c0-0.1,0-0.2,0-0.3
	c-0.1-1.9,1.3-3.6,3.3-3.8c0,0,0.1,0,0.1,0c2.2,0,3.5,1.5,3.5,3.8v0.4h-5.4c0,1.2,0.9,2.2,2.1,2.2c0,0,0.1,0,0.1,0
	c1,0.1,1.8-0.5,2-1.5L287.4,8.9z M286,6.6c0-1-0.8-1.8-1.8-1.8c-0.1,0-0.2,0-0.2,0c-1,0-1.9,0.8-2,1.8H286z M295.9,11h-1.4V0.1h1.4
	v4.5c0.5-0.7,1.3-1.1,2.2-1.1c1.7,0,2.6,1.2,2.6,2.9V11h-1.4V6.7c0.1-0.9-0.4-1.7-1.3-1.8c-0.1,0-0.3,0-0.4,0
	c-1.1,0-1.6,0.8-1.7,1.9L295.9,11L295.9,11z M304.3,0c0.5,0,1,0.4,1,0.9c0,0,0,0.1,0,0.1c0,0.5-0.4,1-0.9,1c0,0-0.1,0-0.1,0
	c-0.6,0-1-0.4-1-1C303.3,0.5,303.8,0,304.3,0L304.3,0z M303.7,11V3.8h1.4V11C305.1,11,303.7,11,303.7,11z M308.8,8.6
	c0.1,0.8,0.9,1.4,1.7,1.3c0,0,0,0,0,0c0.5,0.1,1.1-0.2,1.2-0.8c0-0.1,0-0.1,0-0.2c0-0.5-0.4-0.9-0.9-0.9l-1.2-0.3
	c-1-0.1-1.8-1-1.8-2c0.1-1.3,1.3-2.3,2.6-2.3c1.3-0.2,2.4,0.7,2.7,1.9l-1.2,0.5c-0.1-0.7-0.8-1.2-1.5-1.2c-0.6,0-1.1,0.4-1.2,1
	c0,0.4,0.4,0.8,0.8,0.9l1.2,0.3c1.1,0.1,1.9,1,2,2.1c-0.1,1.3-1.3,2.3-2.6,2.2c0,0,0,0,0,0c-1.4,0.2-2.6-0.8-2.9-2.1L308.8,8.6
	L308.8,8.6L308.8,8.6z M317.6,3.8h1.6v1.3h-1.6v3.8c-0.1,0.5,0.2,0.9,0.7,1c0.1,0,0.2,0,0.3,0c0.2,0,0.4,0,0.6-0.1V11
	c-0.3,0.1-0.7,0.1-1,0.1c-1.1,0-2-0.8-2-1.8c0-0.1,0-0.2,0-0.3V5h-1.4V3.8h0.4c0.5,0.1,1-0.3,1.1-0.9c0-0.1,0-0.1,0-0.2V1.5h1.3
	C317.6,1.5,317.6,3.8,317.6,3.8z M328.5,7.4c0,2-1.7,3.7-3.7,3.7c-2,0-3.7-1.7-3.7-3.7c0,0,0,0,0,0c0-2,1.7-3.7,3.7-3.7
	C326.8,3.7,328.5,5.3,328.5,7.4C328.5,7.4,328.5,7.4,328.5,7.4z M327.1,7.4c0.2-1.2-0.6-2.4-1.8-2.6c-1.2-0.2-2.4,0.6-2.6,1.8
	c0,0.2,0,0.5,0,0.7c-0.1,1.3,0.8,2.4,2.1,2.6c0,0,0.1,0,0.1,0C326.2,9.9,327.2,8.7,327.1,7.4C327.1,7.4,327.1,7.4,327.1,7.4z
	 M335.1,5.2h-0.6c-1.2,0-2,0.6-2,2.2V11h-1.4V3.8h1.4v1.3c0.4-0.9,1.2-1.4,2.2-1.4h0.5v1.5C335.2,5.2,335.1,5.2,335.1,5.2z
	 M337.8,14l1.8-3.8l-3.1-6.4h1.6l2.2,5l2.2-5h1.5L339.3,14H337.8z M353.3,11.2c-1.5,0-2.7-1.2-2.7-2.7c0-0.1,0-0.2,0-0.2V3.8h1.4
	v4.3c0,1,0.4,1.9,1.6,1.9c0.9,0,1.7-0.7,1.7-1.6c0-0.1,0-0.1,0-0.2V3.8h1.4v5.9c0,0.4,0,0.9,0.1,1.3h-1.3c0-0.2-0.1-0.6-0.1-0.9
	C355,10.8,354.2,11.3,353.3,11.2L353.3,11.2z M360.5,8.6c0.1,0.8,0.9,1.4,1.7,1.3c0,0,0,0,0,0c0.5,0.1,1.1-0.2,1.2-0.8
	c0-0.1,0-0.1,0-0.2c0-0.5-0.4-0.9-0.9-0.9l-1.2-0.3c-1-0.1-1.8-1-1.8-2c0.1-1.3,1.3-2.3,2.6-2.3c1.3-0.2,2.4,0.7,2.7,1.9l-1.2,0.5
	c-0.1-0.7-0.8-1.2-1.5-1.2c-0.6,0-1.1,0.4-1.2,1c0,0.4,0.4,0.8,0.8,0.9l1.2,0.3c1.1,0.1,1.9,1,2,2.1c-0.1,1.3-1.3,2.3-2.6,2.2
	c0,0,0,0,0,0c-1.4,0.2-2.6-0.8-2.9-2.1L360.5,8.6L360.5,8.6L360.5,8.6z M368.1,0c0.5,0,1,0.4,1,0.9c0,0,0,0.1,0,0.1
	c0,0.5-0.4,1-0.9,1c0,0-0.1,0-0.1,0c-0.6,0-1-0.4-1-1C367.1,0.4,367.5,0,368.1,0L368.1,0z M367.4,11V3.8h1.4V11
	C368.8,11,367.4,11,367.4,11z M373.4,11H372V3.8h1.4v1c0.5-0.8,1.3-1.2,2.2-1.2c1.7,0,2.6,1.2,2.6,2.9v4.6h-1.4V6.8
	c0.1-0.9-0.4-1.7-1.3-1.8c-0.1,0-0.3,0-0.4,0c-1,0-1.7,0.8-1.7,1.8c0,0.1,0,0.1,0,0.2C373.4,7,373.4,11,373.4,11z M382,11
	c0.2,1.2,1.3,1.9,2.5,1.7c1-0.2,1.8-1.1,1.7-2.2v-1c-0.4,0.8-1.3,1.3-2.2,1.2c-1.8,0-3.3-1.5-3.3-3.3c0-0.1,0-0.1,0-0.2
	c-0.1-1.8,1.3-3.4,3.1-3.5c0.1,0,0.1,0,0.2,0c0.9-0.1,1.8,0.3,2.2,1.1v-1h1.4v6.7c0.2,1.8-1.2,3.4-3,3.6c-0.2,0-0.4,0-0.6,0
	c-1.6,0.1-3.1-1.1-3.3-2.7L382,11z M386.2,7.1c0.1-1.1-0.7-2.1-1.8-2.3c-0.1,0-0.2,0-0.3,0c-1.2,0-2.1,0.9-2.1,2.1
	c0,0.1,0,0.1,0,0.2c-0.1,1.2,0.7,2.2,1.9,2.3s2.2-0.7,2.3-1.9C386.2,7.4,386.2,7.2,386.2,7.1L386.2,7.1z M399.1,5.2h-0.6
	c-1.2,0-2,0.6-2,2.2V11h-1.4V3.8h1.4v1.3c0.4-0.9,1.2-1.4,2.2-1.4h0.5L399.1,5.2C399.2,5.2,399.1,5.2,399.1,5.2z M403,6.8l1.9-0.3
	c0.3,0,0.5-0.2,0.6-0.5c0-0.8-0.6-1.3-1.4-1.3c-0.1,0-0.1,0-0.2,0c-0.8-0.1-1.5,0.6-1.6,1.4c0,0,0,0.1,0,0.1l-1.4-0.3
	c0.2-1.4,1.6-2.4,3-2.3c2.2,0,3,1.2,3,2.6v3.6c0,0.6,0.1,1,0.1,1.2h-1.4c0-0.2-0.1-0.5-0.1-1c-0.5,0.8-1.4,1.2-2.3,1.2
	c-1.2,0.1-2.3-0.8-2.4-2c0-0.1,0-0.1,0-0.2C400.9,7.8,401.8,6.9,403,6.8L403,6.8z M405.6,7.9V7.6l-2.2,0.3c-0.6,0-1.1,0.5-1.1,1.1
	c0,0.6,0.5,1,1.1,1c0,0,0.1,0,0.1,0c1,0.1,2-0.6,2.1-1.7C405.6,8.2,405.6,8,405.6,7.9L405.6,7.9z M411.3,11h-1.4V3.8h1.4v1
	c0.5-0.8,1.3-1.2,2.2-1.2c1.7,0,2.6,1.2,2.6,2.9v4.6h-1.4V6.8c0.1-0.9-0.4-1.7-1.3-1.8c-0.1,0-0.3,0-0.4,0c-1,0-1.7,0.8-1.7,1.8
	c0,0.1,0,0.1,0,0.2L411.3,11L411.3,11L411.3,11z M419.9,11c0.2,1.2,1.3,1.9,2.5,1.7c1-0.2,1.8-1.1,1.7-2.2v-1
	c-0.4,0.8-1.3,1.3-2.2,1.2c-1.8,0-3.3-1.5-3.3-3.3c0-0.1,0-0.1,0-0.2c-0.1-1.8,1.3-3.4,3.1-3.5c0.1,0,0.1,0,0.2,0
	c0.9-0.1,1.8,0.3,2.2,1.1v-1h1.4v6.7c0.2,1.8-1.2,3.4-3,3.6c-0.2,0-0.4,0-0.6,0c-1.6,0.1-3.1-1.1-3.3-2.7L419.9,11L419.9,11z
	 M424.2,7.1c0.1-1.1-0.7-2.1-1.8-2.3c-0.1,0-0.2,0-0.3,0c-1.2,0-2.1,0.9-2.1,2.1c0,0.1,0,0.1,0,0.2c-0.1,1.1,0.7,2.1,1.8,2.3
	c0.1,0,0.2,0,0.3,0c1.2,0,2.1-0.9,2.1-2.1C424.2,7.2,424.2,7.2,424.2,7.1z M434.8,8.9c-0.4,1.4-1.7,2.3-3.2,2.3
	c-2,0-3.6-1.6-3.6-3.6c0-0.1,0-0.2,0-0.3c-0.1-1.9,1.3-3.6,3.3-3.8c0,0,0.1,0,0.1,0c2.2,0,3.5,1.5,3.5,3.8v0.4h-5.4
	c0,1.2,0.9,2.2,2.1,2.2c0,0,0.1,0,0.1,0c1,0.1,1.8-0.5,2-1.5L434.8,8.9z M433.4,6.6c0-1-0.8-1.8-1.8-1.8c-0.1,0-0.2,0-0.2,0
	c-1,0-1.9,0.8-2,1.8H433.4z M438,8.6c0.1,0.8,0.9,1.4,1.7,1.3c0,0,0,0,0,0c0.5,0.1,1.1-0.2,1.2-0.8c0-0.1,0-0.1,0-0.2
	c0-0.5-0.4-0.9-0.9-0.9l-1.2-0.3c-1-0.1-1.8-1-1.8-2c0.1-1.3,1.3-2.3,2.6-2.3c1.3-0.2,2.4,0.7,2.7,1.9l-1.2,0.5
	c-0.1-0.7-0.8-1.2-1.5-1.2c-0.6,0-1.1,0.4-1.2,1c0,0.4,0.4,0.8,0.8,0.9l1.2,0.3c1.1,0.1,1.9,1,2,2.1c-0.1,1.3-1.3,2.3-2.6,2.2
	c0,0,0,0,0,0c-1.4,0.2-2.6-0.8-2.9-2.1L438,8.6L438,8.6L438,8.6z"/>
<path class="st1" d="M213,340.7c0,22.6-18.4,41-41,41 M213,340.7c0-22.6,18.4-41,41-41h215.1"/>
<circle class="st2" cx="297.4" cy="299.7" r="21"/>
<circle class="st2" cx="393.7" cy="299.7" r="21"/>
<circle class="st2" cx="489.9" cy="299.7" r="21"/>
<path class="st1" d="M2,381.7h170"/>
<circle class="st3" cx="23" cy="381.7" r="21"/>
<circle class="st3" cx="119" cy="381.7" r="21"/>
<path class="st1" d="M155.3,381.7h216.1"/>
<circle class="st4" cx="296.4" cy="381.7" r="21"/>
<circle class="st5" cx="392.4" cy="381.7" r="21"/>
<path class="st6" d="M439.9,158.7h100v50h-100V158.7z"/>
<path class="st7" d="M463.1,189.7v-10.6h6.5v1.4h-5v3.4h4.5v1.4h-4.5v4.5h-1.5V189.7z M477.7,187.6c-0.4,1.4-1.7,2.3-3.2,2.3
	c-2,0-3.6-1.6-3.6-3.6c0-0.1,0-0.2,0-0.3c-0.1-1.9,1.3-3.6,3.3-3.8c0,0,0.1,0,0.1,0c2.2,0,3.5,1.5,3.5,3.8v0.4h-5.4
	c0,1.2,0.9,2.2,2.1,2.2c0,0,0.1,0,0.1,0c1,0.1,1.8-0.5,2-1.5L477.7,187.6z M476.3,185.3c0-1-0.8-1.8-1.8-1.8c-0.1,0-0.2,0-0.2,0
	c-1,0-1.9,0.8-2,1.8H476.3z M482.1,185.6l1.9-0.3c0.3,0,0.5-0.2,0.6-0.5c0-0.8-0.6-1.3-1.4-1.3c-0.1,0-0.1,0-0.2,0
	c-0.8-0.1-1.5,0.6-1.6,1.4c0,0,0,0.1,0,0.1l-1.4-0.3c0.2-1.4,1.6-2.4,3-2.3c2.2,0,3,1.2,3,2.6v3.6c0,0.6,0.1,1,0.1,1.2h-1.4
	c0-0.2-0.1-0.5-0.1-1c-0.5,0.8-1.4,1.2-2.3,1.2c-1.2,0.1-2.3-0.8-2.4-2c0-0.1,0-0.1,0-0.2C479.9,186.6,480.8,185.6,482.1,185.6
	C482,185.6,482.1,185.6,482.1,185.6L482.1,185.6z M484.6,186.6v-0.3l-2.2,0.3c-0.6,0-1.1,0.5-1.1,1.1c0,0.6,0.5,1,1.1,1
	c0,0,0.1,0,0.1,0c1,0.1,2-0.5,2.1-1.6C484.6,187,484.6,186.8,484.6,186.6L484.6,186.6z M490.8,182.5h1.6v1.3h-1.6v3.8
	c-0.1,0.5,0.2,0.9,0.7,1c0.1,0,0.2,0,0.3,0c0.2,0,0.4,0,0.6-0.1v1.2c-0.3,0.1-0.7,0.1-1,0.1c-1.1,0-2-0.8-2-1.8c0-0.1,0-0.2,0-0.3
	v-4H488v-1.3h0.4c0.5,0.1,1-0.3,1.1-0.9c0-0.1,0-0.1,0-0.2v-1.2h1.3L490.8,182.5L490.8,182.5L490.8,182.5z M497.6,189.9
	c-1.5,0-2.7-1.2-2.7-2.7c0-0.1,0-0.2,0-0.2v-4.5h1.4v4.3c0,1,0.4,1.9,1.6,1.9c0.9,0,1.7-0.7,1.7-1.6c0-0.1,0-0.1,0-0.2v-4.4h1.4v5.9
	c0,0.4,0,0.9,0.1,1.3h-1.4c0-0.2-0.1-0.6-0.1-0.9C499.3,189.6,498.4,190,497.6,189.9L497.6,189.9L497.6,189.9z M508.3,183.9h-0.6
	c-1.2,0-2,0.6-2,2.2v3.6h-1.4v-7.2h1.4v1.3c0.4-0.9,1.2-1.4,2.2-1.4h0.5v1.5L508.3,183.9L508.3,183.9z M516.7,187.6
	c-0.4,1.4-1.7,2.3-3.2,2.3c-2,0-3.6-1.6-3.6-3.6c0-0.1,0-0.2,0-0.3c-0.1-1.9,1.3-3.6,3.3-3.8c0,0,0.1,0,0.1,0c2.2,0,3.5,1.5,3.5,3.8
	v0.4h-5.4c0,1.2,0.9,2.2,2.1,2.2c0,0,0.1,0,0.1,0c1,0.1,1.8-0.5,2-1.5L516.7,187.6z M515.3,185.3c0-1-0.8-1.8-1.8-1.8
	c-0.1,0-0.2,0-0.2,0c-1,0-1.9,0.8-2,1.8H515.3z M399.6,90.7c0.6,0,1,0.4,1,1s-0.4,1-1,1s-1-0.4-1-1S399,90.7,399.6,90.7z
	 M404.5,90.7c0.6,0,1,0.4,1,1s-0.4,1-1,1s-1-0.4-1-1S403.9,90.7,404.5,90.7z M410.4,86.7v5.9h-1.5v-5.9h-1.3v-1.3h1.3v-1.1
	c-0.1-1.3,0.9-2.4,2.2-2.5c0.1,0,0.2,0,0.2,0c0.3-0.1,0.6,0,0.8,0.2v1.3c-0.2-0.1-0.4-0.1-0.6-0.1c-0.5-0.1-1,0.3-1.1,0.9
	c0,0.1,0,0.2,0,0.3v1.1h1.7v1.3L410.4,86.7L410.4,86.7L410.4,86.7z M420.4,90.6c-0.4,1.4-1.7,2.3-3.2,2.3c-2,0-3.6-1.6-3.6-3.6
	c0-0.1,0-0.2,0-0.3c-0.1-1.9,1.3-3.6,3.3-3.8c0,0,0.1,0,0.1,0c2.2,0,3.5,1.5,3.5,3.8v0.4h-5.4c0,1.2,0.9,2.2,2.1,2.2
	c0,0,0.1,0,0.1,0c1,0.1,1.8-0.5,2-1.5L420.4,90.6z M419,88.3c0-1-0.8-1.8-1.8-1.8c-0.1,0-0.2,0-0.2,0c-1,0-1.9,0.8-2,1.8H419z
	 M424.8,88.6l1.9-0.3c0.3,0,0.5-0.2,0.6-0.5c0-0.8-0.6-1.3-1.4-1.3c-0.1,0-0.1,0-0.2,0c-0.8-0.1-1.5,0.6-1.6,1.4c0,0,0,0.1,0,0.1
	l-1.4-0.3c0.2-1.4,1.6-2.4,3-2.3c2.2,0,3,1.2,3,2.6v3.6c0,0.6,0.1,1,0.1,1.2h-1.4c0-0.2-0.1-0.5-0.1-1c-0.5,0.8-1.4,1.2-2.3,1.2
	c-1.2,0.1-2.3-0.8-2.4-2c0-0.1,0-0.1,0-0.2C422.6,89.6,423.5,88.6,424.8,88.6C424.7,88.6,424.8,88.6,424.8,88.6L424.8,88.6
	L424.8,88.6z M427.3,89.6v-0.3l-2.2,0.3c-0.6,0-1,0.4-1,1c0,0,0,0.1,0,0.1c0,0.6,0.5,1,1.1,1c0,0,0.1,0,0.1,0c1,0.1,1.9-0.7,2-1.7
	C427.3,89.9,427.3,89.7,427.3,89.6z M433.5,85.5h1.6v1.3h-1.6v3.8c-0.1,0.5,0.2,0.9,0.7,1c0.1,0,0.2,0,0.3,0c0.2,0,0.4,0,0.6-0.1
	v1.2c-0.3,0.1-0.7,0.1-1,0.1c-1.1,0-2-0.8-2-1.8c0-0.1,0-0.2,0-0.3v-4h-1.4v-1.3h0.4c0.5,0.1,1-0.3,1.1-0.9c0-0.1,0-0.1,0-0.2v-1.2
	h1.3V85.5L433.5,85.5z M440.3,92.9c-1.5,0-2.7-1.2-2.7-2.7c0-0.1,0-0.2,0-0.2v-4.5h1.4v4.3c0,1,0.4,1.9,1.6,1.9
	c0.9,0,1.7-0.7,1.7-1.6c0-0.1,0-0.1,0-0.2v-4.4h1.4v5.9c0,0.4,0,0.9,0.1,1.3h-1.3c0-0.2-0.1-0.6-0.1-0.9
	C442,92.6,441.2,93,440.3,92.9L440.3,92.9L440.3,92.9z M450.9,86.9h-0.6c-1.2,0-2,0.6-2,2.2v3.6h-1.4v-7.2h1.4v1.3
	c0.4-0.9,1.2-1.4,2.2-1.4h0.5v1.5L450.9,86.9L450.9,86.9z M459.4,90.6c-0.4,1.4-1.7,2.3-3.2,2.3c-2,0-3.6-1.6-3.6-3.6
	c0-0.1,0-0.2,0-0.3c-0.1-1.9,1.3-3.6,3.3-3.8c0,0,0.1,0,0.1,0c2.2,0,3.5,1.5,3.5,3.8v0.4h-5.4c0,1.2,0.9,2.2,2.1,2.2
	c0,0,0.1,0,0.1,0c1,0.1,1.8-0.5,2-1.5L459.4,90.6z M458,88.3c0-1-0.8-1.8-1.8-1.8c-0.1,0-0.2,0-0.2,0c-1,0-1.9,0.8-2,1.8H458z"/>
<path class="st8" d="M489.9,254.5V231 M500.8,245.8l-10.9,10.9l-10.8-10.9"/>
<path class="st8" d="M392.4,427.1v23.5 M381.5,435.8l10.9-10.9l10.9,10.9 M259,138.6v-14h304v14 M411,124.6v-14 M466.4,543.6v14
	h-207v-14 M371.4,557.6v14"/>
<path class="st7" d="M376,597.7c0.6,0,1,0.4,1,1s-0.4,1-1,1s-1-0.4-1-1S375.4,597.7,376,597.7z"/>
<path class="st7" d="M380.9,597.7c0.6,0,1,0.4,1,1s-0.4,1-1,1s-1-0.4-1-1S380.3,597.7,380.9,597.7z"/>
<path class="st7" d="M323.7,593.8v5.9h-1.5v-5.9h-1.3v-1.3h1.3v-1.2c-0.1-1.3,0.9-2.4,2.2-2.5c0.1,0,0.2,0,0.2,0
	c0.3-0.1,0.6,0,0.8,0.2v1.3c-0.2-0.1-0.4-0.1-0.6-0.1c-0.5-0.1-1,0.3-1.1,0.9c0,0.1,0,0.2,0,0.3v1.1h1.7v1.3L323.7,593.8
	L323.7,593.8z"/>
<path class="st7" d="M333.8,596.1c0-2.3-1.3-3.8-3.5-3.8c-2,0.1-3.5,1.7-3.4,3.7c0,0,0,0.1,0,0.1c-0.2,2,1.3,3.7,3.3,3.9
	c0.1,0,0.2,0,0.3,0c1.5,0,2.8-0.9,3.2-2.3l-1.1-0.5c-0.2,1-1,1.6-2,1.5c-1.2,0-2.2-0.9-2.2-2.1c0,0,0-0.1,0-0.1h5.4V596.1z
	 M328.3,595.4c0.1-1,1-1.8,2-1.8c1-0.1,1.9,0.6,2,1.6c0,0.1,0,0.2,0,0.2H328.3z"/>
<path class="st7" d="M342,598.6V595c0-1.4-0.8-2.6-3-2.6c-1.4-0.1-2.8,0.9-3,2.3l1.4,0.3c0-0.8,0.7-1.5,1.5-1.5c0,0,0.1,0,0.1,0
	c0.7-0.1,1.4,0.4,1.6,1.1c0,0.1,0,0.1,0,0.2c-0.1,0.3-0.3,0.5-0.6,0.5l-1.9,0.3c-1.2,0.1-2.2,1.1-2.1,2.3c0.1,1.2,1.1,2.2,2.3,2.1
	c0.9,0,1.8-0.4,2.3-1.2c0,0.5,0.1,0.8,0.1,1h1.4C342.1,599.6,342,599.2,342,598.6z M340.6,596.7c0.1,1-0.7,2-1.7,2.1
	c-0.1,0-0.2,0-0.3,0c-0.6,0.1-1.1-0.3-1.2-0.9c0,0,0-0.1,0-0.1c-0.1-0.5,0.3-1,0.9-1.1c0,0,0.1,0,0.1,0l2.2-0.3V596.7z"/>
<path class="st7" d="M346.8,592.5h1.6v1.3h-1.6v3.8c-0.1,0.5,0.2,0.9,0.7,1c0.1,0,0.2,0,0.3,0c0.2,0,0.4,0,0.6-0.1v1.2
	c-0.3,0.1-0.7,0.1-1,0.1c-1.1,0-2-0.8-2-1.8c0-0.1,0-0.2,0-0.3v-4H344v-1.3h0.4c0.6,0,1-0.4,1.1-0.9c0,0,0-0.1,0-0.1v-1.2h1.3
	L346.8,592.5L346.8,592.5L346.8,592.5z"/>
<path class="st7" d="M353.6,600c-1.5,0-2.7-1.2-2.7-2.7c0-0.1,0-0.2,0-0.2v-4.5h1.4v4.3c0,1,0.4,1.9,1.6,1.9c0.9,0,1.7-0.7,1.7-1.6
	c0-0.1,0-0.1,0-0.2v-4.4h1.4v5.9c0,0.4,0,0.9,0.1,1.3h-1.4c0-0.2-0.1-0.6-0.1-0.9C355.3,599.6,354.5,600.1,353.6,600L353.6,600
	L353.6,600z"/>
<path class="st7" d="M364.2,594h-0.6c-1.2,0-2,0.6-2,2.2v3.6h-1.4v-7.2h1.4v1.3c0.4-0.9,1.2-1.4,2.2-1.4h0.5v1.5L364.2,594
	L364.2,594z"/>
<path class="st7" d="M372.8,596.1c0-2.3-1.3-3.8-3.5-3.8c-2,0.1-3.5,1.7-3.4,3.7c0,0,0,0.1,0,0.1c-0.2,2,1.3,3.7,3.3,3.9
	c0.1,0,0.2,0,0.3,0c1.5,0,2.8-0.9,3.2-2.3l-1.1-0.5c-0.2,1-1,1.6-2,1.5c-1.2,0-2.2-0.9-2.2-2.1c0,0,0-0.1,0-0.1h5.4V596.1z
	 M367.3,595.4c0.1-1,1-1.8,2-1.8c1-0.1,1.9,0.6,2,1.6c0,0.1,0,0.2,0,0.2H367.3z"/>
<g>
	<path class="st9" d="M345.2,473.6h96.2v50h-96.2V473.6z"/>
	<g>
		<path class="st10" d="M378.2,504.7v-10h2l2.4,7.1c0.2,0.7,0.4,1.2,0.5,1.5c0.1-0.4,0.3-0.9,0.5-1.6l2.4-7h1.8v10h-1.3v-8.4
			l-2.9,8.4h-1.2l-2.9-8.5v8.5H378.2z"/>
		<path class="st10" d="M395.2,503.8c-0.5,0.4-0.9,0.7-1.3,0.8c-0.4,0.2-0.9,0.2-1.4,0.2c-0.8,0-1.4-0.2-1.8-0.6
			c-0.4-0.4-0.6-0.9-0.6-1.5c0-0.4,0.1-0.7,0.2-1c0.2-0.3,0.4-0.5,0.6-0.7c0.3-0.2,0.6-0.3,0.9-0.4c0.2-0.1,0.6-0.1,1.1-0.2
			c1-0.1,1.7-0.3,2.2-0.4c0-0.2,0-0.3,0-0.3c0-0.5-0.1-0.9-0.3-1.1c-0.3-0.3-0.8-0.4-1.4-0.4c-0.6,0-1,0.1-1.3,0.3
			c-0.3,0.2-0.5,0.6-0.6,1.1l-1.2-0.2c0.1-0.5,0.3-0.9,0.5-1.2c0.3-0.3,0.6-0.6,1.1-0.7c0.5-0.2,1-0.3,1.6-0.3s1.1,0.1,1.5,0.2
			s0.7,0.3,0.9,0.6c0.2,0.2,0.3,0.5,0.4,0.8c0,0.2,0.1,0.6,0.1,1.1v1.6c0,1.1,0,1.9,0.1,2.2s0.2,0.6,0.3,0.9h-1.3
			C395.2,504.5,395.2,504.2,395.2,503.8z M395,501.1c-0.4,0.2-1.1,0.3-2,0.5c-0.5,0.1-0.9,0.2-1.1,0.2c-0.2,0-0.4,0.2-0.5,0.4
			c-0.1,0.2-0.2,0.4-0.2,0.6c0,0.3,0.1,0.6,0.4,0.8c0.2,0.2,0.6,0.3,1.1,0.3s0.9-0.1,1.3-0.3c0.4-0.2,0.6-0.5,0.8-0.9
			c0.1-0.3,0.2-0.7,0.2-1.2V501.1L395,501.1z"/>
		<path class="st10" d="M398.9,496.1v-1.4h1.2v1.4H398.9z M398.9,504.7v-7.3h1.2v7.3H398.9z"/>
		<path class="st10" d="M402.7,504.7v-7.3h1.1v1c0.5-0.8,1.3-1.2,2.3-1.2c0.4,0,0.8,0.1,1.2,0.2c0.4,0.2,0.6,0.4,0.8,0.6
			s0.3,0.6,0.4,0.9c0,0.2,0.1,0.6,0.1,1.2v4.5h-1.2v-4.4c0-0.5,0-0.9-0.1-1.1s-0.3-0.4-0.5-0.6c-0.2-0.1-0.5-0.2-0.9-0.2
			c-0.5,0-1,0.2-1.4,0.5s-0.6,1-0.6,1.9v4H402.7L402.7,504.7z"/>
	</g>
</g>
<g>
	<path class="st7" d="M384.8,599.7v-7.2h1.3v1c0.5-0.7,1.3-1.2,2.2-1.2c1-0.1,1.8,0.5,2.2,1.4c0.5-0.9,1.4-1.4,2.4-1.4
		c1.4,0,2.5,1.1,2.5,2.4c0,0.1,0,0.2,0,0.3v4.7H394v-4.5c0.1-0.8-0.5-1.5-1.3-1.6c-0.1,0-0.2,0-0.2,0c-0.9,0-1.7,0.8-1.7,1.7
		c0,0,0,0.1,0,0.1v4.4h-1.4v-4.5c0.1-0.8-0.4-1.5-1.2-1.6c-0.1,0-0.2,0-0.3,0c-0.9,0-1.7,0.8-1.7,1.7c0,0,0,0.1,0,0.1v4.3h-1.4
		V599.7L384.8,599.7z"/>
	<g>
		<path class="st10" d="M402.3,598.8c-0.5,0.4-0.9,0.7-1.3,0.8c-0.4,0.2-0.9,0.2-1.4,0.2c-0.8,0-1.4-0.2-1.8-0.6
			c-0.4-0.4-0.6-0.9-0.6-1.5c0-0.4,0.1-0.7,0.2-1c0.2-0.3,0.4-0.5,0.6-0.7c0.3-0.2,0.6-0.3,0.9-0.4c0.2-0.1,0.6-0.1,1.1-0.2
			c1-0.1,1.7-0.3,2.2-0.4c0-0.2,0-0.3,0-0.3c0-0.5-0.1-0.9-0.3-1.1c-0.3-0.3-0.8-0.4-1.4-0.4c-0.6,0-1,0.1-1.3,0.3s-0.5,0.6-0.6,1.1
			l-1.2-0.2c0.1-0.5,0.3-0.9,0.5-1.2c0.3-0.3,0.6-0.6,1.1-0.7c0.5-0.2,1-0.3,1.6-0.3s1.1,0.1,1.5,0.2c0.4,0.1,0.7,0.3,0.9,0.6
			c0.2,0.2,0.3,0.5,0.4,0.8c0,0.2,0.1,0.6,0.1,1.1v1.6c0,1.1,0,1.9,0.1,2.2c0.1,0.3,0.2,0.6,0.3,0.9h-1.3
			C402.4,599.5,402.3,599.2,402.3,598.8z M402.2,596.1c-0.4,0.2-1.1,0.3-2,0.5c-0.5,0.1-0.9,0.2-1.1,0.2c-0.2,0-0.4,0.2-0.5,0.4
			c-0.1,0.2-0.2,0.4-0.2,0.6c0,0.3,0.1,0.6,0.4,0.8c0.2,0.2,0.6,0.3,1.1,0.3s0.9-0.1,1.3-0.3c0.4-0.2,0.6-0.5,0.8-0.9
			c0.1-0.3,0.2-0.7,0.2-1.2V596.1L402.2,596.1z"/>
		<path class="st10" d="M406,591.1v-1.4h1.2v1.4H406z M406,599.7v-7.3h1.2v7.3H406z"/>
		<path class="st10" d="M409.8,599.7v-7.3h1.1v1c0.5-0.8,1.3-1.2,2.3-1.2c0.4,0,0.8,0.1,1.2,0.2c0.4,0.2,0.6,0.4,0.8,0.6
			s0.3,0.6,0.4,0.9c0,0.2,0.1,0.6,0.1,1.2v4.5h-1.2v-4.4c0-0.5,0-0.9-0.1-1.1s-0.3-0.4-0.5-0.6c-0.2-0.1-0.5-0.2-0.9-0.2
			c-0.5,0-1,0.2-1.4,0.5s-0.6,1-0.6,1.9v4H409.8L409.8,599.7z"/>
	</g>
</g>
<g>
	<path class="st7" d="M363.4,92.9v-7.2h1.3v1c0.5-0.7,1.3-1.2,2.2-1.2c1-0.1,1.8,0.5,2.2,1.4c0.5-0.9,1.4-1.4,2.4-1.4
		c1.4,0,2.5,1.1,2.5,2.4c0,0.1,0,0.2,0,0.3v4.7h-1.4v-4.5c0.1-0.8-0.5-1.5-1.3-1.6c-0.1,0-0.2,0-0.2,0c-0.9,0-1.7,0.8-1.7,1.7
		c0,0,0,0.1,0,0.1V93H368v-4.5c0.1-0.8-0.4-1.5-1.2-1.6c-0.1,0-0.2,0-0.3,0c-0.9,0-1.7,0.8-1.7,1.7c0,0,0,0.1,0,0.1V93h-1.4V92.9
		L363.4,92.9z"/>
	<g>
		<path class="st10" d="M380.9,92c-0.5,0.4-0.9,0.7-1.3,0.8c-0.4,0.2-0.9,0.2-1.4,0.2c-0.8,0-1.4-0.2-1.8-0.6
			c-0.4-0.4-0.6-0.9-0.6-1.5c0-0.4,0.1-0.7,0.2-1c0.2-0.3,0.4-0.5,0.6-0.7c0.3-0.2,0.6-0.3,0.9-0.4c0.2-0.1,0.6-0.1,1.1-0.2
			c1-0.1,1.7-0.3,2.2-0.4c0-0.2,0-0.3,0-0.3c0-0.5-0.1-0.9-0.3-1.1c-0.3-0.3-0.8-0.4-1.4-0.4c-0.6,0-1,0.1-1.3,0.3
			c-0.3,0.2-0.5,0.6-0.6,1.1l-1.2-0.2c0.1-0.5,0.3-0.9,0.5-1.2c0.3-0.3,0.6-0.6,1.1-0.7c0.5-0.2,1-0.3,1.6-0.3s1.1,0.1,1.5,0.2
			s0.7,0.3,0.9,0.6c0.2,0.2,0.3,0.5,0.4,0.8c0,0.2,0.1,0.6,0.1,1.1v1.6c0,1.1,0,1.9,0.1,2.2s0.2,0.6,0.3,0.9h-1.3
			C381,92.7,380.9,92.4,380.9,92z M380.8,89.3c-0.4,0.2-1.1,0.3-2,0.5c-0.5,0.1-0.9,0.2-1.1,0.2c-0.2,0-0.4,0.2-0.5,0.4
			c-0.1,0.2-0.2,0.4-0.2,0.6c0,0.3,0.1,0.6,0.4,0.8c0.2,0.2,0.6,0.3,1.1,0.3s0.9-0.1,1.3-0.3c0.4-0.2,0.6-0.5,0.8-0.9
			c0.1-0.3,0.2-0.7,0.2-1.2V89.3L380.8,89.3z"/>
		<path class="st10" d="M384.6,84.3v-1.4h1.2v1.4H384.6z M384.6,92.9v-7.3h1.2v7.3H384.6z"/>
		<path class="st10" d="M388.4,92.9v-7.3h1.1v1c0.5-0.8,1.3-1.2,2.3-1.2c0.4,0,0.8,0.1,1.2,0.2c0.4,0.2,0.6,0.4,0.8,0.6
			s0.3,0.6,0.4,0.9c0,0.2,0.1,0.6,0.1,1.2v4.5h-1.2v-4.4c0-0.5,0-0.9-0.1-1.1s-0.3-0.4-0.5-0.6c-0.2-0.1-0.5-0.2-0.9-0.2
			c-0.5,0-1,0.2-1.4,0.5s-0.6,1-0.6,1.9v4H388.4L388.4,92.9z"/>
	</g>
</g>
</svg>
