<?xml version="1.0" encoding="utf-8"?>
<!-- Generator: Adobe Illustrator 25.2.3, SVG Export Plug-In . SVG Version: 6.00 Build 0)  -->
<svg version="1.1" id="Layer_1" xmlns="http://www.w3.org/2000/svg" xmlns:xlink="http://www.w3.org/1999/xlink" x="0px" y="0px"
	 viewBox="0 0 800 461.5" style="enable-background:new 0 0 800 461.5;" xml:space="preserve">
<style type="text/css">
	.st0{fill:#404040;}
	.st1{fill:#FFFFFF;}
	.st2{fill:#B18BE8;}
	.st3{fill:#4ED1A1;}
	.st4{fill:#FFFFFF;stroke:#404040;stroke-width:4;stroke-linecap:round;stroke-linejoin:round;stroke-miterlimit:10;}
	.st5{fill:#59AFE1;stroke:#404040;stroke-width:4;stroke-linejoin:round;stroke-miterlimit:10;}
	.st6{fill:none;stroke:#404040;stroke-width:4;stroke-linecap:round;stroke-linejoin:round;stroke-miterlimit:10;}
	.st7{fill:#B18BE8;stroke:#404040;stroke-width:4;stroke-linecap:round;stroke-linejoin:round;stroke-miterlimit:10;}
	.st8{fill:#4ED1A1;stroke:#404040;stroke-width:4;stroke-miterlimit:10;}
	.st9{fill:#B3E3FF;stroke:#404040;stroke-width:4;stroke-linecap:round;stroke-linejoin:round;stroke-miterlimit:10;}
	.st10{fill:#414141;}
</style>
<g>
	<path class="st0" d="M517.9,272.9H259.6c-1.1,0-2-0.9-2-2s0.9-2,2-2c21.5,0,39-17.5,39-39c0-23.7,19.3-43,43-43h220
		c1.1,0,2,0.9,2,2s-0.9,2-2,2h-220c-21.5,0-39,17.5-39,39c0,17.2-10.2,32.2-24.9,39h240.2c1.1,0,2,0.9,2,2S519,272.9,517.9,272.9z"
		/>
</g>
<g>
	<ellipse class="st1" cx="434.6" cy="270.9" rx="21" ry="21"/>
	<path class="st0" d="M434.7,293.9c-6.1,0-11.9-2.4-16.3-6.7c-4.9-4.9-7.3-11.7-6.6-18.6c1.1-10.8,9.7-19.5,20.5-20.5l0,0
		c6.9-0.7,13.7,1.7,18.6,6.6c4.9,4.9,7.3,11.7,6.6,18.6c-1.1,10.8-9.7,19.5-20.5,20.5C436.2,293.8,435.4,293.9,434.7,293.9z
		 M432.7,252c-8.9,0.9-16.1,8-17,17c-0.6,5.7,1.4,11.3,5.5,15.4c4,4,9.6,6,15.4,5.5c8.9-0.9,16.1-8,17-17c0.6-5.7-1.4-11.3-5.5-15.4
		S438.4,251.4,432.7,252L432.7,252z"/>
</g>
<g>
	<circle class="st1" cx="351.3" cy="270.9" r="21"/>
	<path class="st0" d="M351.3,293.9c-12.7,0-23-10.3-23-23s10.3-23,23-23s23,10.3,23,23S364,293.9,351.3,293.9z M351.3,251.9
		c-10.5,0-19,8.5-19,19s8.5,19,19,19s19-8.5,19-19S361.8,251.9,351.3,251.9z"/>
</g>
<g>
	<circle class="st2" cx="268.1" cy="270.9" r="21"/>
	<path class="st0" d="M268.1,293.9c-12.7,0-23-10.3-23-23s10.3-23,23-23c12.7,0,23,10.3,23,23S280.8,293.9,268.1,293.9z
		 M268.1,251.9c-10.5,0-19,8.5-19,19s8.5,19,19,19s19-8.5,19-19S278.6,251.9,268.1,251.9z"/>
</g>
<g>
	<path class="st3" d="M449.7,53.1h220.2v50H449.7V53.1z"/>
	<path class="st0" d="M671.9,105.1H447.7v-54h224.2V105.1z M451.7,101.1h216.2v-46H451.7V101.1z"/>
</g>
<g>
	<path class="st0" d="M560.2,150.4L560.2,150.4c-0.5,0-1-0.2-1.4-0.6l-10.9-10.9c-0.8-0.8-0.8-2,0-2.8s2-0.8,2.8,0l7.5,7.5v-20.9
		c0-1.1,0.9-2,2-2s2,0.9,2,2v20.9l7.5-7.5c0.8-0.8,2-0.8,2.8,0s0.8,2,0,2.8l-10.9,10.9C561.3,150.2,560.8,150.4,560.2,150.4z"/>
</g>
<path class="st0" d="M529.1,79.2c0,2.2-1.5,3.9-3.7,3.9s-3.7-1.6-3.7-3.9c0-2.2,1.5-3.8,3.7-3.8S529.1,77,529.1,79.2z M527.7,79.2
	c0-1.7-1.1-2.6-2.3-2.6s-2.3,0.9-2.3,2.6s1.1,2.6,2.3,2.6S527.7,80.9,527.7,79.2z"/>
<path class="st0" d="M532.9,82.8h-1.4v-7.3h1.4v1c0.5-0.9,1.4-1.3,2.2-1.3c1.7,0,2.6,1.3,2.6,2.9v4.6h-1.4v-4.4c0-1-0.4-1.8-1.7-1.8
	c-1.1,0-1.7,0.9-1.7,2L532.9,82.8L532.9,82.8z"/>
<path class="st0" d="M548.8,77c-0.2,0-0.4,0-0.6,0c-1.2,0-2,0.6-2,2.2v3.6h-1.4v-7.3h1.4v1.3c0.5-1.1,1.4-1.4,2.2-1.4
	c0.2,0,0.4,0,0.5,0V77H548.8z"/>
<path class="st0" d="M557.1,80.7c-0.4,1.3-1.6,2.3-3.3,2.3c-1.9,0-3.6-1.4-3.6-3.9c0-2.3,1.6-3.8,3.5-3.8c2.2,0,3.5,1.5,3.5,3.8
	c0,0.2,0,0.4,0,0.5h-5.5c0,1.3,1,2.2,2.2,2.2s1.8-0.6,2-1.5L557.1,80.7z M555.7,78.4c0-1-0.7-1.9-2-1.9c-1.2,0-1.9,0.9-2,1.9H555.7z
	"/>
<path class="st0" d="M559.5,82.8v-7.3h1.4v1c0.5-0.8,1.4-1.2,2.2-1.2c0.9,0,1.8,0.4,2.2,1.4c0.6-1,1.5-1.4,2.4-1.4
	c1.3,0,2.5,0.9,2.5,2.8v4.7h-1.4v-4.6c0-0.9-0.5-1.7-1.5-1.7s-1.7,0.8-1.7,1.8v4.4h-1.4v-4.6c0-0.9-0.5-1.7-1.5-1.7
	s-1.7,0.8-1.7,1.8v4.4h-1.5V82.8z"/>
<path class="st0" d="M579.8,79.2c0,2.2-1.5,3.9-3.7,3.9s-3.7-1.6-3.7-3.9c0-2.2,1.5-3.8,3.7-3.8S579.8,77,579.8,79.2z M578.3,79.2
	c0-1.7-1.1-2.6-2.3-2.6s-2.3,0.9-2.3,2.6s1.1,2.6,2.3,2.6S578.3,80.9,578.3,79.2z"/>
<path class="st0" d="M584,75.5h1.6v1.3H584v3.8c0,0.7,0.3,1,1,1c0.2,0,0.4,0,0.6-0.1v1.2c-0.1,0-0.5,0.1-1,0.1c-1.2,0-2-0.8-2-2.1
	v-4h-1.4v-1.3h0.4c0.8,0,1.1-0.5,1.1-1.1v-1.2h1.3L584,75.5L584,75.5z"/>
<path class="st0" d="M594.2,80.7c-0.4,1.3-1.6,2.3-3.3,2.3c-1.9,0-3.6-1.4-3.6-3.9c0-2.3,1.6-3.8,3.5-3.8c2.2,0,3.5,1.5,3.5,3.8
	c0,0.2,0,0.4,0,0.5h-5.5c0,1.3,1,2.2,2.2,2.2s1.8-0.6,2-1.5L594.2,80.7z M592.8,78.4c0-1-0.7-1.9-2-1.9c-1.2,0-1.9,0.9-2,1.9H592.8z
	"/>
<path class="st0" d="M607.7,79.2c0,2.2-1.5,3.9-3.7,3.9s-3.7-1.6-3.7-3.9c0-2.2,1.5-3.8,3.7-3.8S607.7,77,607.7,79.2z M606.3,79.2
	c0-1.7-1.1-2.6-2.3-2.6s-2.3,0.9-2.3,2.6s1.1,2.6,2.3,2.6S606.3,80.9,606.3,79.2z"/>
<path class="st0" d="M614.1,77c-0.2,0-0.4,0-0.6,0c-1.2,0-2,0.6-2,2.2v3.6h-1.4v-7.3h1.4v1.3c0.5-1.1,1.4-1.4,2.2-1.4
	c0.2,0,0.4,0,0.5,0V77H614.1z"/>
<path class="st0" d="M616.9,71.8c0.6,0,1,0.5,1,1c0,0.6-0.5,1-1,1c-0.6,0-1-0.5-1-1C615.9,72.2,616.3,71.8,616.9,71.8z M616.2,82.8
	v-7.3h1.4v7.3H616.2z"/>
<path class="st0" d="M621.4,82.9c0.1,1,0.9,1.8,2,1.8c1.5,0,2.2-0.8,2.2-2.4v-1c-0.3,0.7-1.1,1.2-2.2,1.2c-1.9,0-3.3-1.5-3.3-3.5
	s1.3-3.5,3.3-3.5c1.1,0,1.9,0.4,2.2,1.1v-1h1.4v6.7c0,1.8-0.9,3.6-3.6,3.6c-1.8,0-3.2-1.1-3.3-2.7L621.4,82.9z M625.6,78.9
	c0-1.4-0.8-2.3-2.1-2.3s-2.1,0.9-2.1,2.3s0.8,2.3,2.1,2.3C624.8,81.3,625.6,80.3,625.6,78.9z"/>
<path class="st0" d="M630.5,71.8c0.6,0,1,0.5,1,1c0,0.6-0.5,1-1,1c-0.6,0-1-0.5-1-1C629.5,72.2,629.9,71.8,630.5,71.8z M629.8,82.8
	v-7.3h1.4v7.3H629.8z"/>
<path class="st0" d="M635.6,82.8h-1.4v-7.3h1.4v1c0.5-0.9,1.4-1.3,2.2-1.3c1.7,0,2.6,1.3,2.6,2.9v4.6H639v-4.4c0-1-0.4-1.8-1.7-1.8
	c-1.1,0-1.7,0.9-1.7,2V82.8L635.6,82.8z"/>
<circle class="st4" cx="476.9" cy="188.9" r="21"/>
<circle class="st4" cx="393.7" cy="188.9" r="21"/>
<circle class="st5" cx="517.9" cy="270.9" r="21"/>
<line class="st6" x1="517.9" y1="313.2" x2="517.9" y2="336.7"/>
<polyline class="st6" points="507,321.9 517.9,311.1 528.7,321.9 "/>
<path class="st7" d="M130.1,358.4h276.2v50H130.1V358.4z"/>
<line class="st6" x1="268.2" y1="313.2" x2="268.2" y2="336.7"/>
<polyline class="st6" points="257.3,321.9 268.2,311.1 279,321.9 "/>
<g>
	<path class="st0" d="M161.8,388v-10.7h1.5v9.3h5.1v1.4L161.8,388L161.8,388z"/>
	<path class="st0" d="M177.2,384.4c0,2.2-1.5,3.9-3.7,3.9s-3.7-1.6-3.7-3.9c0-2.2,1.5-3.8,3.7-3.8S177.2,382.2,177.2,384.4z
		 M175.8,384.4c0-1.7-1.1-2.6-2.3-2.6s-2.3,0.9-2.3,2.6s1.1,2.6,2.3,2.6S175.8,386.1,175.8,384.4z"/>
	<path class="st0" d="M180.4,384.4c0,1.7,1,2.5,2.2,2.5c1.4,0,1.9-0.9,2-1.5l1.3,0.5c-0.3,1-1.4,2.3-3.3,2.3c-2.1,0-3.7-1.7-3.7-3.9
		c0-2.3,1.6-3.8,3.6-3.8c1.9,0,2.9,1.2,3.2,2.3l-1.3,0.5c-0.2-0.7-0.7-1.5-1.9-1.5C181.5,381.9,180.4,382.7,180.4,384.4z"/>
	<path class="st0" d="M189.8,383.9l2-0.3c0.4-0.1,0.6-0.3,0.6-0.5c0-0.7-0.5-1.3-1.6-1.3c-1,0-1.6,0.6-1.6,1.5l-1.4-0.3
		c0.2-1.4,1.4-2.4,3-2.4c2.2,0,3,1.2,3,2.7v3.6c0,0.6,0.1,1,0.1,1.2h-1.4c0-0.2-0.1-0.5-0.1-1c-0.3,0.5-1,1.2-2.3,1.2
		c-1.5,0-2.4-1-2.4-2.2C187.6,384.8,188.6,384.1,189.8,383.9z M192.3,384.9v-0.3l-2.2,0.3c-0.6,0.1-1.1,0.4-1.1,1.1
		c0,0.5,0.5,1.1,1.2,1.1C191.4,387.1,192.3,386.5,192.3,384.9z"/>
	<path class="st0" d="M196.5,388v-10.9h1.4V388H196.5z"/>
	<path class="st0" d="M212,384.4c0,2.2-1.5,3.9-3.7,3.9s-3.7-1.6-3.7-3.9c0-2.2,1.5-3.8,3.7-3.8S212,382.2,212,384.4z M210.5,384.4
		c0-1.7-1.1-2.6-2.3-2.6s-2.3,0.9-2.3,2.6s1.1,2.6,2.3,2.6S210.5,386.1,210.5,384.4z"/>
	<path class="st0" d="M218.4,382.2c-0.2,0-0.4,0-0.6,0c-1.2,0-2,0.6-2,2.2v3.6h-1.4v-7.3h1.4v1.3c0.5-1.1,1.4-1.4,2.2-1.4
		c0.2,0,0.4,0,0.5,0L218.4,382.2L218.4,382.2z"/>
	<path class="st0" d="M221.1,377c0.6,0,1,0.5,1,1c0,0.6-0.5,1-1,1c-0.6,0-1-0.5-1-1S220.6,377,221.1,377z M220.4,388v-7.3h1.4v7.3
		H220.4z"/>
	<path class="st0" d="M225.6,388.1c0.1,1,0.9,1.8,2,1.8c1.5,0,2.2-0.8,2.2-2.4v-1c-0.3,0.7-1.1,1.2-2.2,1.2c-1.9,0-3.3-1.5-3.3-3.5
		s1.3-3.5,3.3-3.5c1.1,0,1.9,0.4,2.2,1.1v-1h1.4v6.7c0,1.8-0.9,3.6-3.6,3.6c-1.8,0-3.2-1.1-3.3-2.7L225.6,388.1z M229.9,384.2
		c0-1.4-0.8-2.3-2.1-2.3s-2.1,0.9-2.1,2.3s0.8,2.3,2.1,2.3C229,386.5,229.9,385.6,229.9,384.2z"/>
	<path class="st0" d="M234.7,377c0.6,0,1,0.5,1,1c0,0.6-0.5,1-1,1c-0.6,0-1-0.5-1-1S234.2,377,234.7,377z M234,388v-7.3h1.4v7.3H234
		z"/>
	<path class="st0" d="M239.8,388h-1.4v-7.3h1.4v1c0.5-0.9,1.4-1.3,2.2-1.3c1.7,0,2.6,1.3,2.6,2.9v4.6h-1.4v-4.4c0-1-0.4-1.8-1.7-1.8
		c-1.1,0-1.7,0.9-1.7,2L239.8,388L239.8,388z"/>
	<path class="st0" d="M247.6,388h-1.4l5.2-10.7h1.4L247.6,388z"/>
	<path class="st0" d="M253.6,388v-7.3h1.4v1c0.5-0.8,1.4-1.2,2.2-1.2c0.9,0,1.8,0.4,2.2,1.4c0.6-1,1.5-1.4,2.4-1.4
		c1.3,0,2.5,0.9,2.5,2.8v4.7h-1.4v-4.6c0-0.9-0.5-1.7-1.5-1.7s-1.7,0.8-1.7,1.8v4.4h-1.4v-4.6c0-0.9-0.5-1.7-1.5-1.7
		c-1,0-1.7,0.8-1.7,1.8v4.4h-1.5V388z"/>
	<path class="st0" d="M291.5,377c0.6,0,1,0.5,1,1c0,0.6-0.5,1-1,1c-0.6,0-1-0.5-1-1S290.9,377,291.5,377z M290.8,388v-7.3h1.4v7.3
		H290.8z"/>
	<path class="st0" d="M296.6,388h-1.4v-7.3h1.4v1c0.5-0.9,1.4-1.3,2.2-1.3c1.7,0,2.6,1.3,2.6,2.9v4.6H300v-4.4c0-1-0.4-1.8-1.7-1.8
		c-1.1,0-1.7,0.9-1.7,2L296.6,388L296.6,388z"/>
	<path class="st0" d="M308.7,391.1l1.8-3.8l-3.1-6.5h1.6l2.3,5l2.2-5h1.5l-4.7,10.3H308.7z"/>
	<path class="st0" d="M323.4,384.4c0,2.2-1.5,3.9-3.7,3.9s-3.7-1.6-3.7-3.9c0-2.2,1.5-3.8,3.7-3.8S323.4,382.2,323.4,384.4z
		 M322,384.4c0-1.7-1.1-2.6-2.3-2.6s-2.3,0.9-2.3,2.6s1.1,2.6,2.3,2.6S322,386.1,322,384.4z"/>
	<path class="st0" d="M328.3,388.3c-1.7,0-2.7-1.3-2.7-2.9v-4.6h1.4v4.4c0,1,0.5,1.9,1.6,1.9s1.7-0.8,1.7-1.9v-4.4h1.4v5.9
		c0,0.6,0,1.1,0.1,1.3h-1.4c0-0.2-0.1-0.6-0.1-0.9C330.1,387.9,329.2,388.3,328.3,388.3z"/>
	<path class="st0" d="M338.8,382.2c-0.2,0-0.4,0-0.6,0c-1.2,0-2,0.6-2,2.2v3.6h-1.4v-7.3h1.4v1.3c0.5-1.1,1.4-1.4,2.2-1.4
		c0.2,0,0.4,0,0.5,0v1.6L338.8,382.2L338.8,382.2z"/>
	<path class="st0" d="M349.2,382.2c-0.2,0-0.4,0-0.6,0c-1.2,0-2,0.6-2,2.2v3.6h-1.4v-7.3h1.4v1.3c0.5-1.1,1.4-1.4,2.2-1.4
		c0.2,0,0.4,0,0.5,0v1.6L349.2,382.2L349.2,382.2z"/>
	<path class="st0" d="M357.5,386c-0.4,1.3-1.6,2.3-3.3,2.3c-1.9,0-3.6-1.4-3.6-3.9c0-2.3,1.6-3.8,3.5-3.8c2.2,0,3.5,1.5,3.5,3.8
		c0,0.2,0,0.4,0,0.5h-5.5c0,1.3,1,2.2,2.2,2.2s1.8-0.6,2-1.5L357.5,386z M356.1,383.7c0-1-0.7-1.9-2-1.9c-1.2,0-1.9,0.9-2,1.9H356.1
		z"/>
	<path class="st0" d="M359.9,390.9v-10.1h1.4v1.1c0.4-0.7,1.3-1.3,2.4-1.3c2.2,0,3.3,1.7,3.3,3.8c0,2.2-1.3,3.8-3.4,3.8
		c-1.1,0-2-0.5-2.4-1.2v3.8h-1.3V390.9z M363.4,381.9c-1.3,0-2.2,1.1-2.2,2.5c0,1.5,0.9,2.6,2.2,2.6c1.3,0,2.1-1.1,2.1-2.6
		C365.6,382.9,364.8,381.9,363.4,381.9z"/>
	<path class="st0" d="M376.2,384.4c0,2.2-1.5,3.9-3.7,3.9s-3.7-1.6-3.7-3.9c0-2.2,1.5-3.8,3.7-3.8S376.2,382.2,376.2,384.4z
		 M374.7,384.4c0-1.7-1.1-2.6-2.3-2.6s-2.3,0.9-2.3,2.6s1.1,2.6,2.3,2.6S374.7,386.1,374.7,384.4z"/>
</g>
<circle class="st8" cx="561.6" cy="188.9" r="21"/>
<g>
	<path class="st0" d="M396.1,190.7h-4.7l-1.1,3h-1.6L393,183h1.7l4.3,10.7h-1.6L396.1,190.7z M391.9,189.3h3.7l-1.9-4.8L391.9,189.3
		z"/>
</g>
<g>
	<path class="st0" d="M477.2,183c2,0,3.2,1.2,3.2,2.9c0,1.1-0.7,2-1.6,2.3c1.2,0.3,1.9,1.4,1.9,2.6c0,1.7-1.3,2.9-3.3,2.9h-3.7V183
		H477.2z M477.1,187.7c1.2,0,1.9-0.7,1.9-1.7s-0.7-1.7-2-1.7h-1.8v3.4H477.1z M477.3,192.4c1.2,0,2-0.7,2-1.7s-0.6-1.7-1.9-1.7h-2.1
		v3.5h2V192.4z"/>
</g>
<g>
	<path class="st0" d="M556.7,188.4c0-3.6,2.7-5.6,5.3-5.6c2.4,0,4.2,1.3,4.7,3.4l-1.4,0.5c-0.4-1.6-1.6-2.5-3.3-2.5
		c-1.9,0-3.8,1.4-3.8,4.2s1.9,4.2,3.8,4.2c1.8,0,3-1.1,3.4-2.6l1.3,0.5c-0.6,2-2.3,3.4-4.7,3.4C559.2,193.9,556.7,191.9,556.7,188.4
		z"/>
</g>
<g>
	<path class="st0" d="M264.1,275.7V265h3.7c2.7,0,5.1,1.9,5.1,5.4s-2.4,5.3-5.1,5.3L264.1,275.7L264.1,275.7z M267.7,274.4
		c2,0,3.6-1.3,3.6-4s-1.6-4.1-3.6-4.1h-2.2v8.1H267.7z"/>
</g>
<g>
	<path class="st0" d="M348.3,275.7V265h6.5v1.4h-5v3.3h4.6v1.4h-4.6v3.3h5v1.4L348.3,275.7L348.3,275.7z"/>
</g>
<g>
	<path class="st0" d="M431.8,275.7V265h6.5v1.4h-5v3.4h4.6v1.4h-4.6v4.5L431.8,275.7L431.8,275.7z"/>
</g>
<g>
	<path class="st0" d="M521.7,275.8l-0.1-1.5c-0.5,0.8-1.6,1.7-3.4,1.7c-2.7,0-5.2-2-5.2-5.6s2.7-5.6,5.3-5.6c2.3,0,4.1,1.3,4.7,3.2
		l-1.3,0.6c-0.5-1.5-1.7-2.4-3.4-2.4c-1.9,0-3.8,1.4-3.8,4.2c0,2.8,1.8,4.2,3.7,4.2c2.4,0,3.2-1.7,3.3-2.8h-3.7v-1.3h5.1v5.2
		L521.7,275.8L521.7,275.8z"/>
</g>
<g>
	<path class="st9" d="M469.8,356.7H566v50h-96.2V356.7z"/>
	<g>
		<path class="st10" d="M502.7,387.8v-10h2l2.4,7.1c0.2,0.7,0.4,1.2,0.5,1.5c0.1-0.4,0.3-0.9,0.5-1.6l2.4-7h1.8v10H511v-8.4
			l-2.9,8.4h-1.2l-2.9-8.5v8.5H502.7z"/>
		<path class="st10" d="M519.7,386.9c-0.5,0.4-0.9,0.7-1.3,0.8c-0.4,0.2-0.9,0.2-1.4,0.2c-0.8,0-1.4-0.2-1.8-0.6
			c-0.4-0.4-0.6-0.9-0.6-1.5c0-0.4,0.1-0.7,0.2-1c0.2-0.3,0.4-0.5,0.6-0.7c0.3-0.2,0.6-0.3,0.9-0.4c0.2-0.1,0.6-0.1,1.1-0.2
			c1-0.1,1.7-0.3,2.2-0.4c0-0.2,0-0.3,0-0.3c0-0.5-0.1-0.9-0.3-1.1c-0.3-0.3-0.8-0.4-1.4-0.4c-0.6,0-1,0.1-1.3,0.3
			c-0.3,0.2-0.5,0.6-0.6,1.1l-1.2-0.2c0.1-0.5,0.3-0.9,0.5-1.2c0.3-0.3,0.6-0.6,1.1-0.7c0.5-0.2,1-0.3,1.6-0.3s1.1,0.1,1.5,0.2
			s0.7,0.3,0.9,0.6c0.2,0.2,0.3,0.5,0.4,0.8c0,0.2,0.1,0.6,0.1,1.1v1.6c0,1.1,0,1.9,0.1,2.2s0.2,0.6,0.3,0.9H520
			C519.8,387.6,519.7,387.3,519.7,386.9z M519.6,384.2c-0.4,0.2-1.1,0.3-2,0.5c-0.5,0.1-0.9,0.2-1.1,0.2c-0.2,0-0.4,0.2-0.5,0.4
			c-0.1,0.2-0.2,0.4-0.2,0.6c0,0.3,0.1,0.6,0.4,0.8c0.2,0.2,0.6,0.3,1.1,0.3s0.9-0.1,1.3-0.3c0.4-0.2,0.6-0.5,0.8-0.9
			c0.1-0.3,0.2-0.7,0.2-1.2V384.2L519.6,384.2z"/>
		<path class="st10" d="M523.4,379.2v-1.4h1.2v1.4H523.4z M523.4,387.8v-7.3h1.2v7.3H523.4z"/>
		<path class="st10" d="M527.2,387.8v-7.3h1.1v1c0.5-0.8,1.3-1.2,2.3-1.2c0.4,0,0.8,0.1,1.2,0.2c0.4,0.2,0.6,0.4,0.8,0.6
			s0.3,0.6,0.4,0.9c0,0.2,0.1,0.6,0.1,1.2v4.5h-1.2v-4.4c0-0.5,0-0.9-0.1-1.1c-0.1-0.2-0.3-0.4-0.5-0.6c-0.2-0.1-0.5-0.2-0.9-0.2
			c-0.5,0-1,0.2-1.4,0.5c-0.4,0.3-0.6,1-0.6,1.9v4L527.2,387.8L527.2,387.8z"/>
	</g>
</g>
<g>
	<path class="st10" d="M485.2,83.2v-10h2l2.4,7.1c0.2,0.7,0.4,1.2,0.5,1.5c0.1-0.4,0.3-0.9,0.5-1.6l2.4-7h1.8v10h-1.3v-8.4l-2.9,8.4
		h-1.2l-2.9-8.5v8.5H485.2z"/>
	<path class="st10" d="M502.2,82.3c-0.5,0.4-0.9,0.7-1.3,0.8c-0.4,0.2-0.9,0.2-1.4,0.2c-0.8,0-1.4-0.2-1.8-0.6
		c-0.4-0.4-0.6-0.9-0.6-1.5c0-0.4,0.1-0.7,0.2-1c0.2-0.3,0.4-0.5,0.6-0.7c0.3-0.2,0.6-0.3,0.9-0.4c0.2-0.1,0.6-0.1,1.1-0.2
		c1-0.1,1.7-0.3,2.2-0.4c0-0.2,0-0.3,0-0.3c0-0.5-0.1-0.9-0.3-1.1c-0.3-0.3-0.8-0.4-1.4-0.4s-1,0.1-1.3,0.3s-0.5,0.6-0.6,1.1
		l-1.2-0.2c0.1-0.5,0.3-0.9,0.5-1.2c0.3-0.3,0.6-0.6,1.1-0.7c0.5-0.2,1-0.3,1.6-0.3s1.1,0.1,1.5,0.2s0.7,0.3,0.9,0.6
		c0.2,0.2,0.3,0.5,0.4,0.8c0,0.2,0.1,0.6,0.1,1.1V80c0,1.1,0,1.9,0.1,2.2s0.2,0.6,0.3,0.9h-1.3C502.3,83,502.2,82.7,502.2,82.3z
		 M502.1,79.6c-0.4,0.2-1.1,0.3-2,0.5c-0.5,0.1-0.9,0.2-1.1,0.2s-0.4,0.2-0.5,0.4s-0.2,0.4-0.2,0.6c0,0.3,0.1,0.6,0.4,0.8
		c0.2,0.2,0.6,0.3,1.1,0.3s0.9-0.1,1.3-0.3s0.6-0.5,0.8-0.9c0.1-0.3,0.2-0.7,0.2-1.2L502.1,79.6L502.1,79.6z"/>
	<path class="st10" d="M505.9,74.6v-1.4h1.2v1.4H505.9z M505.9,83.2v-7.3h1.2v7.3H505.9z"/>
	<path class="st10" d="M509.7,83.2v-7.3h1.1v1c0.5-0.8,1.3-1.2,2.3-1.2c0.4,0,0.8,0.1,1.2,0.2c0.4,0.2,0.6,0.4,0.8,0.6
		s0.3,0.6,0.4,0.9c0,0.2,0.1,0.6,0.1,1.2v4.5h-1.2v-4.4c0-0.5,0-0.9-0.1-1.1c-0.1-0.2-0.3-0.4-0.5-0.6c-0.2-0.1-0.5-0.2-0.9-0.2
		c-0.5,0-1,0.2-1.4,0.5s-0.6,1-0.6,1.9v4L509.7,83.2L509.7,83.2z"/>
</g>
<g>
	<path class="st10" d="M271.3,386.9c-0.5,0.4-0.9,0.7-1.3,0.8c-0.4,0.2-0.9,0.2-1.4,0.2c-0.8,0-1.4-0.2-1.8-0.6
		c-0.4-0.4-0.6-0.9-0.6-1.5c0-0.4,0.1-0.7,0.2-1c0.2-0.3,0.4-0.5,0.6-0.7c0.3-0.2,0.6-0.3,0.9-0.4c0.2-0.1,0.6-0.1,1.1-0.2
		c1-0.1,1.7-0.3,2.2-0.4c0-0.2,0-0.3,0-0.3c0-0.5-0.1-0.9-0.3-1.1c-0.3-0.3-0.8-0.4-1.4-0.4s-1,0.1-1.3,0.3s-0.5,0.6-0.6,1.1
		l-1.2-0.2c0.1-0.5,0.3-0.9,0.5-1.2c0.3-0.3,0.6-0.6,1.1-0.7c0.5-0.2,1-0.3,1.6-0.3s1.1,0.1,1.5,0.2s0.7,0.3,0.9,0.6
		c0.2,0.2,0.3,0.5,0.4,0.8c0,0.2,0.1,0.6,0.1,1.1v1.6c0,1.1,0,1.9,0.1,2.2s0.2,0.6,0.3,0.9h-1.3
		C271.4,387.6,271.3,387.3,271.3,386.9z M271.2,384.2c-0.4,0.2-1.1,0.3-2,0.5c-0.5,0.1-0.9,0.2-1.1,0.2s-0.4,0.2-0.5,0.4
		s-0.2,0.4-0.2,0.6c0,0.3,0.1,0.6,0.4,0.8c0.2,0.2,0.6,0.3,1.1,0.3s0.9-0.1,1.3-0.3s0.6-0.5,0.8-0.9c0.1-0.3,0.2-0.7,0.2-1.2
		L271.2,384.2L271.2,384.2z"/>
	<path class="st10" d="M275,379.2v-1.4h1.2v1.4H275z M275,387.8v-7.3h1.2v7.3H275z"/>
	<path class="st10" d="M278.8,387.8v-7.3h1.1v1c0.5-0.8,1.3-1.2,2.3-1.2c0.4,0,0.8,0.1,1.2,0.2c0.4,0.2,0.6,0.4,0.8,0.6
		s0.3,0.6,0.4,0.9c0,0.2,0.1,0.6,0.1,1.2v4.5h-1.2v-4.4c0-0.5,0-0.9-0.1-1.1c-0.1-0.2-0.3-0.4-0.5-0.6c-0.2-0.1-0.5-0.2-0.9-0.2
		c-0.5,0-1,0.2-1.4,0.5s-0.6,1-0.6,1.9v4L278.8,387.8L278.8,387.8z"/>
</g>
</svg>
