<?xml version="1.0" encoding="utf-8"?>
<!-- Generator: Adobe Illustrator 25.2.3, SVG Export Plug-In . SVG Version: 6.00 Build 0)  -->
<svg version="1.1" id="Layer_1" xmlns="http://www.w3.org/2000/svg" xmlns:xlink="http://www.w3.org/1999/xlink" x="0px" y="0px"
	 viewBox="0 0 800 464.5" style="enable-background:new 0 0 800 464.5;" xml:space="preserve">
<style type="text/css">
	.st0{fill:none;stroke:#404040;stroke-width:4;stroke-linecap:round;stroke-linejoin:round;stroke-miterlimit:10;}
	.st1{fill:#FFFFFF;stroke:#404040;stroke-width:4;stroke-linecap:round;stroke-linejoin:round;stroke-miterlimit:10;}
	.st2{fill:#4ED1A1;stroke:#404040;stroke-width:4;stroke-miterlimit:10;}
	.st3{fill:#404040;}
	.st4{fill:#59AFE1;stroke:#404040;stroke-width:4;stroke-linejoin:round;stroke-miterlimit:10;}
	.st5{fill:#B3E3FF;stroke:#404040;stroke-width:4;stroke-linejoin:round;stroke-miterlimit:10;}
	.st6{fill:#414141;}
</style>
<path class="st0" d="M247.6,232.1c0,22.6-18.4,41-41,41h341.5 M247.6,232.1c0-22.6,18.4-41,41-41h176.2 M568.6,273.1
	c-22.6,0-41-18.4-41-41 M486.6,191.1c22.6,0,41,18.4,41,41"/>
<ellipse class="st1" cx="381.6" cy="273.1" rx="21" ry="21"/>
<circle class="st1" cx="298.3" cy="273.1" r="21"/>
<circle class="st1" cx="215.1" cy="273.1" r="21"/>
<path class="st2" d="M364.7,55.3h200.2v50H364.7V55.3z"/>
<path class="st0" d="M465.3,148.4v-23.5 M476.2,139.7l-10.9,10.9l-10.9-10.9"/>
<path class="st3" d="M397.3,80.6h-1.6V85h-1.5V74.3h4c2,0,3.3,1.4,3.3,3.2c0,1.5-1,2.7-2.6,3l2.5,4.5h-1.7L397.3,80.6z M397.9,79.3
	c1.2,0,2-0.7,2-1.8c0-1.1-0.8-1.9-2-1.9h-2.3v3.7C395.6,79.3,397.9,79.3,397.9,79.3z"/>
<path class="st3" d="M409.9,82.9c-0.4,1.3-1.6,2.3-3.3,2.3c-1.9,0-3.6-1.4-3.6-3.9c0-2.3,1.6-3.8,3.5-3.8c2.2,0,3.5,1.5,3.5,3.8
	c0,0.2,0,0.4,0,0.5h-5.5c0,1.3,1,2.2,2.2,2.2s1.8-0.6,2-1.5L409.9,82.9z M408.5,80.6c0-1-0.7-1.9-2-1.9c-1.2,0-1.9,0.9-2,1.9H408.5z
	"/>
<path class="st3" d="M412.3,85v-7.3h1.4v1c0.5-0.8,1.4-1.2,2.2-1.2c0.9,0,1.8,0.4,2.2,1.4c0.6-1,1.5-1.4,2.4-1.4
	c1.3,0,2.5,0.9,2.5,2.8V85h-1.4v-4.6c0-0.9-0.5-1.7-1.5-1.7s-1.7,0.8-1.7,1.8V85H417v-4.6c0-0.9-0.5-1.7-1.5-1.7s-1.7,0.8-1.7,1.8
	V85H412.3z"/>
<path class="st3" d="M432.6,81.4c0,2.2-1.5,3.9-3.7,3.9s-3.7-1.6-3.7-3.9c0-2.2,1.5-3.8,3.7-3.8C431.1,77.5,432.6,79.2,432.6,81.4z
	 M431.2,81.4c0-1.7-1.1-2.6-2.3-2.6c-1.2,0-2.3,0.9-2.3,2.6s1.1,2.6,2.3,2.6S431.2,83,431.2,81.4z"/>
<path class="st3" d="M436.8,77.7h1.6V79h-1.6v3.8c0,0.7,0.3,1,1,1c0.2,0,0.4,0,0.6-0.1v1.2c-0.1,0-0.5,0.1-1,0.1c-1.2,0-2-0.8-2-2.1
	v-4H434v-1.3h0.4c0.8,0,1.1-0.5,1.1-1.1v-1.2h1.3V77.7z"/>
<path class="st3" d="M447,82.9c-0.4,1.3-1.6,2.3-3.3,2.3c-1.9,0-3.6-1.4-3.6-3.9c0-2.3,1.6-3.8,3.5-3.8c2.2,0,3.5,1.5,3.5,3.8
	c0,0.2,0,0.4,0,0.5h-5.5c0,1.3,1,2.2,2.2,2.2s1.8-0.6,2-1.5L447,82.9z M445.6,80.6c0-1-0.7-1.9-2-1.9c-1.2,0-1.9,0.9-2,1.9H445.6z"
	/>
<path class="st3" d="M460.6,81.4c0,2.2-1.5,3.9-3.7,3.9s-3.7-1.6-3.7-3.9c0-2.2,1.5-3.8,3.7-3.8C459,77.5,460.6,79.2,460.6,81.4z
	 M459.1,81.4c0-1.7-1.1-2.6-2.3-2.6c-1.2,0-2.3,0.9-2.3,2.6s1.1,2.6,2.3,2.6C458.1,84,459.1,83,459.1,81.4z"/>
<path class="st3" d="M466.9,79.2c-0.2,0-0.4,0-0.6,0c-1.2,0-2,0.6-2,2.2V85h-1.4v-7.3h1.4V79c0.5-1.1,1.4-1.4,2.2-1.4
	c0.2,0,0.4,0,0.5,0v1.6H466.9z"/>
<path class="st3" d="M469.7,74c0.6,0,1,0.5,1,1c0,0.6-0.5,1-1,1c-0.6,0-1-0.5-1-1C468.7,74.4,469.1,74,469.7,74z M469,85v-7.3h1.4
	V85H469z"/>
<path class="st3" d="M474.2,85.1c0.1,1,0.9,1.8,2,1.8c1.5,0,2.2-0.8,2.2-2.4v-1c-0.3,0.7-1.1,1.2-2.2,1.2c-1.9,0-3.3-1.5-3.3-3.5
	s1.3-3.5,3.3-3.5c1.1,0,1.9,0.4,2.2,1.1v-1h1.4v6.7c0,1.8-0.9,3.6-3.6,3.6c-1.8,0-3.2-1.1-3.3-2.7L474.2,85.1z M478.4,81.1
	c0-1.4-0.8-2.3-2.1-2.3c-1.2,0-2.1,0.9-2.1,2.3s0.8,2.3,2.1,2.3C477.6,83.5,478.4,82.5,478.4,81.1z"/>
<path class="st3" d="M483.3,74c0.6,0,1,0.5,1,1c0,0.6-0.5,1-1,1c-0.6,0-1-0.5-1-1C482.3,74.4,482.7,74,483.3,74z M482.6,85v-7.3h1.4
	V85H482.6z"/>
<path class="st3" d="M488.4,85H487v-7.3h1.4v1c0.5-0.9,1.4-1.3,2.2-1.3c1.7,0,2.6,1.3,2.6,2.9V85h-1.4v-4.4c0-1-0.4-1.8-1.7-1.8
	c-1.1,0-1.7,0.9-1.7,2V85z"/>
<path class="st3" d="M496.2,85h-1.4l5.2-10.7h1.4L496.2,85z"/>
<circle class="st1" cx="381.6" cy="191.1" r="21"/>
<circle class="st1" cx="298.3" cy="191.1" r="21"/>
<ellipse class="st4" cx="548.1" cy="273.1" rx="21" ry="21"/>
<circle class="st1" cx="464.8" cy="273.1" r="21"/>
<line class="st0" x1="548.1" y1="315.4" x2="548.1" y2="338.9"/>
<polyline class="st0" points="537.2,324.1 548.1,313.3 558.9,324.1 "/>
<path class="st5" d="M480.7,359.1h134.2v50H480.7V359.1z"/>
<circle class="st2" cx="465.3" cy="191.1" r="21"/>
<g>
	<path class="st3" d="M300.6,192.9h-4.7l-1.1,3h-1.6l4.3-10.7h1.7l4.3,10.7h-1.6L300.6,192.9z M296.4,191.5h3.7l-1.9-4.8
		L296.4,191.5z"/>
</g>
<g>
	<path class="st3" d="M381.8,185.2c2,0,3.2,1.2,3.2,2.9c0,1.1-0.7,2-1.6,2.3c1.2,0.3,1.9,1.4,1.9,2.6c0,1.7-1.3,2.9-3.3,2.9h-3.7
		v-10.7H381.8z M381.6,189.9c1.2,0,1.9-0.7,1.9-1.7s-0.7-1.7-2-1.7h-1.8v3.4H381.6z M381.8,194.6c1.2,0,2-0.7,2-1.7
		s-0.6-1.7-1.9-1.7h-2.1v3.5h2V194.6z"/>
</g>
<g>
	<path class="st3" d="M460,190.5c0-3.6,2.7-5.6,5.3-5.6c2.4,0,4.2,1.3,4.7,3.4l-1.4,0.5c-0.4-1.6-1.6-2.5-3.3-2.5
		c-1.9,0-3.8,1.4-3.8,4.2s1.9,4.2,3.8,4.2c1.8,0,3-1.1,3.4-2.6l1.3,0.5c-0.6,2-2.3,3.4-4.7,3.4C462.6,196.1,460,194.1,460,190.5z"/>
</g>
<g>
	<path class="st3" d="M211.2,277.9v-10.7h3.7c2.7,0,5.1,1.9,5.1,5.4s-2.4,5.3-5.1,5.3L211.2,277.9L211.2,277.9z M214.9,276.6
		c2,0,3.6-1.3,3.6-4s-1.6-4.1-3.6-4.1h-2.2v8.1H214.9z"/>
</g>
<circle class="st1" cx="298.3" cy="273.1" r="21"/>
<g>
	<path class="st3" d="M378.7,277.9v-10.7h6.5v1.4h-5v3.4h4.6v1.4h-4.6v4.5L378.7,277.9L378.7,277.9z"/>
</g>
<g>
	<path class="st3" d="M468.2,277.9l-0.1-1.5c-0.5,0.8-1.6,1.7-3.4,1.7c-2.7,0-5.2-2-5.2-5.6s2.7-5.6,5.3-5.6c2.3,0,4.1,1.3,4.7,3.2
		l-1.3,0.6c-0.5-1.5-1.7-2.4-3.4-2.4c-1.9,0-3.8,1.4-3.8,4.2c0,2.8,1.8,4.2,3.7,4.2c2.4,0,3.2-1.7,3.3-2.8h-3.7v-1.3h5.1v5.2
		L468.2,277.9L468.2,277.9z"/>
</g>
<g>
	<path class="st3" d="M550.8,277.9v-4.7h-5.5v4.7h-1.5v-10.7h1.5v4.6h5.5v-4.6h1.5v10.7H550.8z"/>
</g>
<g>
	<path class="st3" d="M295.2,277.9v-10.7h6.5v1.4h-5v3.3h4.6v1.4h-4.6v3.3h5v1.4L295.2,277.9L295.2,277.9z"/>
</g>
<g>
	<path class="st3" d="M511.6,390.2v-10.7h1.5v9.3h5.1v1.4L511.6,390.2L511.6,390.2z"/>
	<path class="st3" d="M527,386.6c0,2.2-1.5,3.9-3.7,3.9s-3.7-1.6-3.7-3.9c0-2.2,1.5-3.8,3.7-3.8S527,384.4,527,386.6z M525.6,386.6
		c0-1.7-1.1-2.6-2.3-2.6s-2.3,0.9-2.3,2.6s1.1,2.6,2.3,2.6S525.6,388.3,525.6,386.6z"/>
	<path class="st3" d="M530.2,386.6c0,1.7,1,2.5,2.2,2.5c1.4,0,1.9-0.9,2-1.5l1.3,0.5c-0.3,1-1.4,2.3-3.3,2.3c-2.1,0-3.7-1.7-3.7-3.9
		c0-2.3,1.6-3.8,3.6-3.8c1.9,0,2.9,1.2,3.2,2.3l-1.3,0.5c-0.2-0.7-0.7-1.5-1.9-1.5C531.3,384.1,530.2,384.9,530.2,386.6z"/>
	<path class="st3" d="M539.6,386.1l2-0.3c0.4-0.1,0.6-0.3,0.6-0.5c0-0.7-0.5-1.3-1.6-1.3c-1,0-1.6,0.6-1.6,1.5l-1.4-0.3
		c0.2-1.4,1.4-2.4,3-2.4c2.2,0,3,1.2,3,2.7v3.6c0,0.6,0.1,1,0.1,1.2h-1.4c0-0.2-0.1-0.5-0.1-1c-0.3,0.5-1,1.2-2.3,1.2
		c-1.5,0-2.4-1-2.4-2.2C537.4,387,538.4,386.3,539.6,386.1z M542.1,387.1v-0.3l-2.2,0.3c-0.6,0.1-1.1,0.4-1.1,1.1
		c0,0.5,0.5,1.1,1.2,1.1C541.2,389.3,542.1,388.7,542.1,387.1z"/>
	<path class="st3" d="M546.3,390.2v-10.9h1.4v10.9H546.3z"/>
</g>
<g>
	<path class="st3" d="M556,390.1v-7.3h1.4v1c0.5-0.8,1.4-1.2,2.2-1.2c0.9,0,1.8,0.4,2.2,1.4c0.6-1,1.5-1.4,2.4-1.4
		c1.3,0,2.5,0.9,2.5,2.8v4.7h-1.4v-4.6c0-0.9-0.5-1.7-1.5-1.7s-1.7,0.8-1.7,1.8v4.4h-1.4v-4.6c0-0.9-0.5-1.7-1.5-1.7
		s-1.7,0.8-1.7,1.8v4.4H556V390.1z"/>
	<g>
		<path class="st6" d="M574.5,389.1c-0.5,0.4-0.9,0.7-1.3,0.8c-0.4,0.2-0.9,0.2-1.4,0.2c-0.8,0-1.4-0.2-1.8-0.6
			c-0.4-0.4-0.6-0.9-0.6-1.5c0-0.4,0.1-0.7,0.2-1c0.2-0.3,0.4-0.5,0.6-0.7c0.3-0.2,0.6-0.3,0.9-0.4c0.2-0.1,0.6-0.1,1.1-0.2
			c1-0.1,1.7-0.3,2.2-0.4c0-0.2,0-0.3,0-0.3c0-0.5-0.1-0.9-0.3-1.1c-0.3-0.3-0.8-0.4-1.4-0.4s-1,0.1-1.3,0.3s-0.5,0.6-0.6,1.1
			l-1.2-0.2c0.1-0.5,0.3-0.9,0.5-1.2c0.3-0.3,0.6-0.6,1.1-0.7c0.5-0.2,1-0.3,1.6-0.3c0.6,0,1.1,0.1,1.5,0.2c0.4,0.1,0.7,0.3,0.9,0.6
			c0.2,0.2,0.3,0.5,0.4,0.8c0,0.2,0.1,0.6,0.1,1.1v1.6c0,1.1,0,1.9,0.1,2.2c0.1,0.3,0.2,0.6,0.3,0.9h-1.3
			C574.6,389.8,574.5,389.5,574.5,389.1z M574.4,386.4c-0.4,0.2-1.1,0.3-2,0.5c-0.5,0.1-0.9,0.2-1.1,0.2s-0.4,0.2-0.5,0.4
			s-0.2,0.4-0.2,0.6c0,0.3,0.1,0.6,0.4,0.8c0.2,0.2,0.6,0.3,1.1,0.3s0.9-0.1,1.3-0.3s0.6-0.5,0.8-0.9c0.1-0.3,0.2-0.7,0.2-1.2
			L574.4,386.4L574.4,386.4z"/>
		<path class="st6" d="M578.2,381.4V380h1.2v1.4H578.2z M578.2,390v-7.3h1.2v7.3H578.2z"/>
		<path class="st6" d="M582,390v-7.3h1.1v1c0.5-0.8,1.3-1.2,2.3-1.2c0.4,0,0.8,0.1,1.2,0.2c0.4,0.2,0.6,0.4,0.8,0.6
			c0.2,0.2,0.3,0.6,0.4,0.9c0,0.2,0.1,0.6,0.1,1.2v4.5h-1.2v-4.4c0-0.5,0-0.9-0.1-1.1c-0.1-0.2-0.3-0.4-0.5-0.6
			c-0.2-0.1-0.5-0.2-0.9-0.2c-0.5,0-1,0.2-1.4,0.5s-0.6,1-0.6,1.9v4L582,390L582,390z"/>
	</g>
</g>
<g>
	<path class="st3" d="M502.8,84.9v-7.3h1.4v1c0.5-0.8,1.4-1.2,2.2-1.2c0.9,0,1.8,0.4,2.2,1.4c0.6-1,1.5-1.4,2.4-1.4
		c1.3,0,2.5,0.9,2.5,2.8v4.7h-1.4v-4.6c0-0.9-0.5-1.7-1.5-1.7s-1.7,0.8-1.7,1.8v4.4h-1.4v-4.6c0-0.9-0.5-1.7-1.5-1.7
		s-1.7,0.8-1.7,1.8v4.4h-1.5V84.9z"/>
	<g>
		<path class="st6" d="M521.3,83.9c-0.5,0.4-0.9,0.7-1.3,0.8c-0.4,0.2-0.9,0.2-1.4,0.2c-0.8,0-1.4-0.2-1.8-0.6
			c-0.4-0.4-0.6-0.9-0.6-1.5c0-0.4,0.1-0.7,0.2-1c0.2-0.3,0.4-0.5,0.6-0.7c0.3-0.2,0.6-0.3,0.9-0.4c0.2-0.1,0.6-0.1,1.1-0.2
			c1-0.1,1.7-0.3,2.2-0.4c0-0.2,0-0.3,0-0.3c0-0.5-0.1-0.9-0.3-1.1c-0.3-0.3-0.8-0.4-1.4-0.4c-0.6,0-1,0.1-1.3,0.3s-0.5,0.6-0.6,1.1
			l-1.2-0.2c0.1-0.5,0.3-0.9,0.5-1.2c0.3-0.3,0.6-0.6,1.1-0.7c0.5-0.2,1-0.3,1.6-0.3c0.6,0,1.1,0.1,1.5,0.2c0.4,0.1,0.7,0.3,0.9,0.6
			c0.2,0.2,0.3,0.5,0.4,0.8c0,0.2,0.1,0.6,0.1,1.1v1.6c0,1.1,0,1.9,0.1,2.2c0.1,0.3,0.2,0.6,0.3,0.9h-1.3
			C521.4,84.6,521.3,84.3,521.3,83.9z M521.2,81.2c-0.4,0.2-1.1,0.3-2,0.5c-0.5,0.1-0.9,0.2-1.1,0.2s-0.4,0.2-0.5,0.4
			c-0.1,0.2-0.2,0.4-0.2,0.6c0,0.3,0.1,0.6,0.4,0.8c0.2,0.2,0.6,0.3,1.1,0.3s0.9-0.1,1.3-0.3c0.4-0.2,0.6-0.5,0.8-0.9
			c0.1-0.3,0.2-0.7,0.2-1.2V81.2L521.2,81.2z"/>
		<path class="st6" d="M525,76.2v-1.4h1.2v1.4H525z M525,84.8v-7.3h1.2v7.3H525z"/>
		<path class="st6" d="M528.8,84.8v-7.3h1.1v1c0.5-0.8,1.3-1.2,2.3-1.2c0.4,0,0.8,0.1,1.2,0.2c0.4,0.2,0.6,0.4,0.8,0.6
			c0.2,0.2,0.3,0.6,0.4,0.9c0,0.2,0.1,0.6,0.1,1.2v4.5h-1.2v-4.4c0-0.5,0-0.9-0.1-1.1c-0.1-0.2-0.3-0.4-0.5-0.6
			c-0.2-0.1-0.5-0.2-0.9-0.2c-0.5,0-1,0.2-1.4,0.5c-0.4,0.3-0.6,1-0.6,1.9v4L528.8,84.8L528.8,84.8z"/>
	</g>
</g>
</svg>
